<svg width="1436" height="1055" viewBox="0 0 1436 1055" fill="none" xmlns="http://www.w3.org/2000/svg">
<path d="M1443.83 0.0306534C1400.2 6.0448 1358.35 23.5038 1321.84 50.0513C1285.33 76.5988 1254.23 111.651 1231.67 152.516C1219.08 175.338 1209.21 199.979 1202.65 225.583C1200.87 232.54 1210.85 235.525 1212.63 228.568C1223.91 184.539 1245.22 143.921 1273.5 110.081C1301.77 76.2397 1336.77 48.8844 1375.64 31.2683C1397.39 21.4168 1420.44 14.4826 1443.83 11.2511C1446.61 10.8696 1449.01 8.93967 1449.01 5.64086C1449.01 2.90308 1446.63 -0.350841 1443.83 0.0306534Z" fill="#314731"/>
<path d="M561.083 445.076C527.595 434.372 492.969 423.443 457.68 425.732C430.153 427.528 402.647 438.501 382.695 459.641C372.098 470.883 364.13 484.976 360.57 500.64C358.976 507.641 368.952 510.649 370.546 503.625C376.486 477.571 395.486 458.518 417.404 447.567C444.207 434.193 474.631 434.799 503.11 440.521C521.82 444.269 540.117 450.081 558.351 455.893C564.746 457.935 567.478 447.119 561.103 445.076H561.083Z" fill="#314731"/>
<path d="M894.243 291.851C853.263 283.099 810.979 283.48 770.04 292.232C729.66 300.872 690.605 317.748 655.937 341.804C621.27 365.861 590.845 397.592 567.313 434.642C543.821 471.647 527.015 513.768 517.826 557.55C508.636 601.332 507.001 646.91 513.583 691.298C514.39 696.751 515.342 702.182 516.398 707.59C517.785 714.659 527.761 711.652 526.374 704.605C518.074 662.237 517.805 618.051 524.987 575.481C532.231 532.574 546.719 491.238 567.892 454.143C588.9 417.363 616.551 385.227 649.149 360.228C681.891 335.117 718.939 316.985 757.85 306.617C796.574 296.294 837.306 293.624 876.816 299.907C881.721 300.693 886.627 301.613 891.49 302.645C894.222 303.228 897.079 301.792 897.865 298.718C898.569 295.958 897.016 292.412 894.243 291.806V291.851Z" fill="#314731"/>
<path d="M1235.14 153.817C1203.95 140.218 1170.3 133.485 1136.71 133.463C1103.14 133.463 1069.4 140.083 1038.09 153.278C1006.77 166.473 979.825 184.897 955.879 208.909C932.802 232.045 913.491 259.76 899.066 290.033C884.557 320.462 874.995 353.428 871.042 387.426C870.545 391.667 870.152 395.931 869.841 400.195C869.614 403.224 872.387 405.805 875.016 405.805C877.996 405.805 879.962 403.224 880.19 400.195C882.549 367.678 890.559 335.587 903.288 306.078C916.016 276.568 933.609 248.876 954.968 225.493C976.328 202.109 1002.92 181.958 1031.57 168.291C1060.21 154.625 1093.16 146.434 1125.33 144.975C1157.49 143.516 1190.29 148.453 1220.95 160.01C1224.8 161.469 1228.6 163.017 1232.39 164.678C1234.98 165.8 1238.08 163.444 1238.77 160.751C1239.57 157.542 1237.75 154.984 1235.14 153.839V153.817Z" fill="#314731"/>
<path d="M952.091 222.575C986.221 242.345 1017.51 267.434 1045.06 296.876C1072.61 326.319 1096.29 359.868 1115.23 396.424C1134.76 434.125 1149.04 474.832 1157.39 517.133C1166.41 562.957 1168.44 610.352 1163.88 656.94C1159.35 703.28 1148.03 749.127 1130.21 791.562C1128 796.813 1125.7 802.042 1123.3 807.203C1120.32 813.644 1129.24 819.321 1132.24 812.859C1152.17 769.952 1165.6 723.634 1172 676.127C1178.39 628.619 1178.04 580.057 1170.63 532.595C1163.7 488.229 1150.33 445.188 1131.33 405.176C1113.18 366.959 1089.91 331.57 1062.68 300.332C1035.46 269.117 1004.1 241.986 969.828 220.42C965.71 217.817 961.529 215.304 957.328 212.88C951.45 209.469 946.213 219.164 952.112 222.575H952.091Z" fill="#314731"/>
<path d="M1152.29 336.284C1168.02 342.927 1186.69 345.754 1200.79 335.476C1211.59 327.6 1217.63 313.215 1219.44 298.785C1221.24 284.356 1219.33 269.68 1217.24 255.295C1214.76 238.105 1210.99 219.053 1198.18 209.404C1187.23 201.168 1172.89 202.402 1160.01 205.14C1136.29 210.212 1100.86 228.097 1097.34 259.671C1093.33 295.621 1126.19 325.243 1152.27 336.262L1152.29 336.284Z" fill="#426E47"/>
<path d="M1150.93 341.692C1164.65 347.482 1181.12 350.713 1195.28 344.767C1209.83 338.663 1219.06 324.458 1222.93 308.457C1227.47 289.764 1224.71 270.106 1221.88 251.368C1219.66 236.669 1216.29 220.848 1206.48 209.74C1195.2 196.971 1178.66 196.208 1163.53 198.789C1151.82 200.786 1140.43 204.826 1129.8 210.526C1119.16 216.225 1108.31 224.663 1100.92 235.592C1093.14 247.082 1090.58 261.107 1092.6 275.088C1096.72 303.274 1119.8 325.625 1142.34 337.63C1145.13 339.112 1148.01 340.458 1150.91 341.692C1153.52 342.792 1156.58 340.48 1157.28 337.765C1158.09 334.578 1156.29 331.975 1153.66 330.853C1143.7 326.59 1133.75 319.969 1125.49 312.183C1117.23 304.396 1109.04 294.095 1105.06 282.336C1101.42 271.587 1100.92 259.334 1105.42 249.169C1109.91 239.003 1117.94 231.081 1126.8 225.112C1135.65 219.143 1145.59 214.744 1155.85 211.894C1166.95 208.82 1180.48 206.172 1191.31 211.558C1202.13 216.944 1207.22 230.565 1209.85 242.885C1211.45 250.313 1212.48 257.876 1213.43 265.438C1214.51 273.943 1215.23 282.583 1214.86 291.178C1214.2 306.572 1209.09 323.942 1196.05 332.043C1183.01 340.144 1166.78 336.396 1153.66 330.853C1151.05 329.754 1147.99 332.065 1147.29 334.78C1146.48 337.967 1148.28 340.57 1150.91 341.692H1150.93Z" fill="#426E47"/>
<path d="M1243.44 419.315C1264.99 406.21 1278.34 377.485 1275.4 349.928C1269.67 296.339 1214.76 275.267 1177.15 302.735C1143.06 327.622 1142.07 380.829 1172.58 410.384C1191.83 429.009 1221.15 432.847 1243.44 419.315Z" fill="#426E47"/>
<path d="M1246.05 424.14C1273.27 407.579 1286.51 370.35 1278.57 338.035C1272.09 311.667 1251.81 291.582 1227.13 286.511C1201.3 281.192 1174.09 291.784 1158.19 314.741C1141.88 338.326 1141.63 371.741 1155.48 396.695C1163.3 410.81 1175.1 421.717 1189.2 427.821C1203.56 434.059 1220.28 434.732 1234.98 429.414C1238.81 428.022 1242.51 426.25 1246.05 424.14C1251.89 420.662 1246.67 410.967 1240.84 414.446C1216.62 428.92 1185.55 420.931 1168.62 397.682C1154.36 378.114 1151.53 350.175 1162.39 328.408C1173.26 306.64 1195.76 294.926 1217.68 296.407C1227.51 297.08 1237.52 300.648 1246.07 306.73C1254.62 312.811 1261.55 321.698 1265.84 332.245C1276.48 358.389 1268.59 390.905 1248.12 409.127C1245.87 411.147 1243.38 412.897 1240.84 414.446C1235.02 417.969 1240.24 427.663 1246.05 424.14Z" fill="#426E47"/>
<path d="M1287.57 335.588C1311.37 319.543 1323.75 284.4 1315.95 254.218C1303.57 206.351 1248.33 188.376 1213.56 216.539C1178.87 244.635 1183.03 305.764 1217.53 332.424C1237.86 348.132 1266.38 349.905 1287.57 335.61V335.588Z" fill="#426E47"/>
<path d="M1290.18 340.435C1316.57 322.639 1329.34 284.58 1320.85 252.377C1313.44 224.281 1290.65 203.456 1264.24 198.721C1237.42 193.919 1209.33 205.251 1194.62 230.767C1180.09 255.99 1181.48 290.01 1195.72 314.987C1203.68 328.968 1215.44 339.605 1229.51 345.664C1245.04 352.351 1263.27 352.822 1278.94 346.359C1282.85 344.744 1286.62 342.791 1290.2 340.435C1295.87 336.665 1290.67 326.971 1284.98 330.741C1260.19 347.19 1227.03 340.009 1208.9 315.862C1194.33 296.473 1190.52 267.614 1199.46 244.927C1204.14 233.056 1212.15 223.294 1222.52 216.876C1232.29 210.839 1243.28 208.281 1254.45 208.775C1276.72 209.762 1298.1 223.855 1307.85 246.363C1319.15 272.439 1311.68 305.988 1291.98 325.063C1289.8 327.172 1287.47 329.057 1284.98 330.718C1279.33 334.533 1284.53 344.227 1290.2 340.413L1290.18 340.435Z" fill="#426E47"/>
<path d="M346.868 571.824C358.583 574.427 371.912 573.955 380.563 564.867C387.186 557.91 389.773 546.982 389.38 536.614C388.987 526.246 385.986 516.17 382.902 506.319C379.218 494.56 374.416 481.656 364.399 476.562C355.83 472.209 345.999 474.969 337.327 478.604C321.39 485.292 298.727 502.549 299.886 525.214C301.19 551.021 327.455 567.515 346.868 571.824Z" fill="#426E47"/>
<path d="M345.482 577.231C355.913 579.543 367.193 579.745 376.92 574.471C387.207 568.906 392.692 557.349 394.14 545.388C395.775 531.856 392.154 518.504 388.2 505.802C384.972 495.457 381.288 484.214 373.63 476.674C364.233 467.406 351.753 467.451 340.225 471.535C331.304 474.699 322.86 479.412 315.409 485.605C307.958 491.799 301.024 499.721 297.299 509.482C293.573 519.244 294.07 530.285 297.941 540.069C305.888 560.109 326.502 572.945 345.482 577.254C348.214 577.882 351.07 576.378 351.856 573.326C352.56 570.544 350.987 567.043 348.234 566.415C334.347 563.273 319.445 555.374 311.042 542.493C306.799 535.985 304.129 528.063 305.205 520.029C306.281 511.996 310.731 505.353 315.864 499.9C321.39 494.021 328.013 489.375 334.988 485.785C341.963 482.194 352.519 477.818 360.922 481.072C368.476 484.012 372.678 492.876 375.451 500.461C379.156 510.627 382.757 521.578 383.916 532.484C385.075 543.39 383.544 555.643 375.285 562.443C367.752 568.636 357.072 568.367 348.255 566.415C345.523 565.809 342.667 567.267 341.88 570.342C341.177 573.125 342.75 576.625 345.502 577.254L345.482 577.231Z" fill="#426E47"/>
<path d="M419.805 618.185C433.32 606.134 439.363 584.187 434.169 565.18C424.089 528.242 383.44 520.679 360.363 544.96C339.459 566.952 344.799 604.496 369.428 621.259C384.951 631.829 405.834 630.662 419.805 618.185Z" fill="#426E47"/>
<path d="M423.468 622.158C441.205 606.337 445.573 577.658 436.3 555.531C428.684 537.332 411.629 525.819 393.354 525.348C375.078 524.877 355.996 536.232 347.51 554.476C338.32 574.224 341.777 598.079 354.754 614.82C371.87 636.901 402.792 640.223 423.489 622.158C425.662 620.25 425.31 616.211 423.489 614.214C421.336 611.88 418.356 612.306 416.162 614.214C401.405 627.095 379.239 624.941 365.765 611.117C353.905 598.954 349.518 580.351 354.94 563.969C357.465 556.339 362.764 549.203 368.704 544.715C371.788 542.381 375.141 540.451 378.286 539.239C381.722 537.915 385.53 536.995 388.511 536.726C402.668 535.446 416.617 541.909 424.379 555.127C435.307 573.686 432.099 600.031 416.183 614.214C414.03 616.144 414.341 620.161 416.183 622.158C418.315 624.469 421.336 624.088 423.509 622.158H423.468Z" fill="#426E47"/>
<path d="M441.019 553.512C455.776 539.083 460.412 512.737 451.533 492.541C437.459 460.518 396.935 455.154 375.927 479.547C354.961 503.873 364.813 546.309 391.864 560.491C407.801 568.862 427.877 566.349 441.019 553.49V553.512Z" fill="#426E47"/>
<path d="M444.683 557.484C461.82 540.743 465.752 511.121 455.714 489.062C446.918 469.763 427.566 458.183 407.925 458.744C387.89 459.328 369.656 472.276 362.495 492.787C355.334 513.298 361.046 537.422 374.395 553.242C392.547 574.763 424.462 576.828 444.662 557.484C449.671 552.681 442.323 544.782 437.335 549.54C422.847 563.431 399.625 562.825 385.344 549.181C373.278 537.646 367.276 518.908 370.67 502.279C374.209 484.91 387.373 472.837 403.289 470.324C410.388 469.202 418.211 470.256 425.434 473.263C432.202 476.091 438.929 481.589 443.255 488.299C455.135 506.7 452.92 534.325 437.356 549.54C432.389 554.387 439.736 562.309 444.683 557.484Z" fill="#426E47"/>
<path d="M955.952 893.84C978.079 915.854 1008.16 934.47 1040.18 930.053C1064.73 926.679 1086 909.98 1099.97 889.933C1113.94 869.885 1121.69 846.609 1128.97 823.625C1137.64 796.174 1145.49 764.962 1130.65 740.74C1117.97 720.061 1092.33 710.814 1068.03 704.989C1023.29 694.237 948.722 693.484 918.875 737.681C884.896 787.995 919.262 857.386 955.952 893.865V893.84Z" fill="#426E47"/>
<path d="M951.408 898.112C970.514 917.116 995.043 933.524 1023.37 936.387C1051.69 939.251 1077.64 925.174 1095.45 905.612C1115.26 883.865 1125.28 856.342 1133.9 829.353C1142.01 803.965 1150.99 775.035 1141.54 748.846C1132.09 722.658 1108.21 710.231 1082.7 702.586C1061.99 696.373 1040.18 693.096 1018.44 692.781C995.869 692.465 972.941 695.402 952.156 703.969C931.372 712.537 914.331 728.532 905.526 748.968C895.715 771.758 897.083 797.485 904.132 820.761C911.181 844.037 924.039 866.414 940.073 885.686C943.636 889.981 947.406 894.132 951.382 898.088C957.088 903.792 966.202 895.2 960.522 889.496C944.72 873.72 931.862 854.91 923.032 834.911C914.202 814.912 908.625 791.879 912.575 770.059C916.19 750.036 927.395 731.954 945.443 721.032C962.045 710.984 982.004 706.615 1001.45 705.304C1020.89 703.994 1041.08 705.426 1060.21 709.406C1081.64 713.872 1105.29 720.716 1120.04 736.978C1137.39 756.128 1133.36 783.675 1127.37 806.126C1123.96 818.892 1119.85 831.586 1115.36 844.061C1110.87 856.536 1105.63 868.939 1098.53 880.443C1086.24 900.418 1067.05 918.645 1042.27 923.524C1017.35 928.427 992.693 916.558 974.18 901.777C969.378 897.942 964.808 893.841 960.47 889.52C954.738 883.841 945.624 892.433 951.33 898.112H951.408Z" fill="#426E47"/>
<path d="M1035.52 1048.18C1089.44 1045.18 1140.6 1011.01 1158.57 965.384C1193.49 876.673 1103.11 798.927 1005.07 811.402C916.21 822.699 868.301 905.313 903.131 976.476C925.088 1021.36 979.773 1051.28 1035.49 1048.18H1035.52Z" fill="#426E47"/>
<path d="M1035.52 1054.58C1099.5 1051.02 1155.76 1008.01 1169.93 954.24C1176.65 928.802 1173.9 902.417 1161.73 878.517C1150.52 856.538 1131.25 837.889 1108.11 824.799C1059.85 797.517 993.356 795.955 945.506 824.876C899.343 852.798 877.267 902.699 886.618 950.372C891.738 976.398 906.415 1000.76 928.313 1019.15C951.306 1038.42 981.223 1050.87 1013 1054.04C1020.49 1054.78 1028.01 1054.94 1035.52 1054.55C1044.99 1054.07 1045.05 1041.26 1035.52 1041.75C977.495 1044.74 922.779 1011.19 905.439 963.385C890.465 922.091 902.982 875.469 939.499 845.497C976.015 815.526 1036.18 808.302 1083.14 827.412C1130.01 846.496 1161.56 887.483 1158.63 932.773C1155.37 983.263 1111.1 1027.66 1054.49 1039.24C1048.25 1040.52 1041.95 1041.39 1035.52 1041.75C1031.53 1041.98 1028.13 1044.54 1028.13 1048.15C1028.13 1051.45 1031.53 1054.78 1035.52 1054.55V1054.58Z" fill="#426E47"/>
<path d="M1190.97 1002.06C1233.57 996.521 1271.92 953.476 1279.33 902.154C1291.1 820.764 1225.58 750.833 1160.53 765.99C1095.62 781.122 1064.47 875.979 1096.06 942.775C1114.68 982.148 1153.03 1007 1190.97 1002.08V1002.06Z" fill="#426E47"/>
<path d="M1190.97 1008.18C1236.11 1002.32 1275.68 958.251 1284.07 905.509C1288.19 879.554 1284.94 852.865 1274.96 829.261C1264.98 805.657 1249.94 787.684 1231.54 775.025C1213.14 762.366 1191.61 756 1170.42 758.179C1149.23 760.359 1131.1 769.737 1115.66 785.53C1086.41 815.451 1073.35 864.545 1080.37 909.133C1088.75 962.56 1128.4 1004.06 1174.08 1008.42C1179.71 1008.96 1185.34 1008.84 1190.97 1008.15C1193.75 1007.81 1196.15 1005.58 1196.15 1002.03C1196.15 998.995 1193.77 995.567 1190.97 995.91C1148.63 1001.17 1106.8 968.584 1093.61 921.057C1082.83 882.15 1090.51 836.754 1113.17 805.779C1124.74 789.962 1139.66 778.478 1156.76 773.263C1175.51 767.533 1195.34 769.688 1213.28 778.062C1249.59 795.006 1276.08 838.076 1275.5 884.672C1274.9 933.765 1244.16 979.161 1204.51 992.653C1200.08 994.171 1195.53 995.346 1190.95 995.934C1188.18 996.301 1185.78 998.481 1185.78 1002.06C1185.78 1005.09 1188.16 1008.54 1190.95 1008.18H1190.97Z" fill="#426E47"/>
<path d="M508.678 723.971C497.977 751.551 493.465 784.18 510.189 808.55C523.021 827.244 546.346 837.544 569.734 840.439C593.122 843.334 616.903 839.743 640.228 835.861C668.066 831.238 698.946 824.304 714.531 801.796C727.839 782.564 725.79 757.565 721.257 735.146C712.916 693.855 683.775 632.367 632.57 626.78C574.287 620.429 526.394 678.281 508.636 723.993L508.678 723.971Z" fill="#426E47"/>
<path d="M503.69 722.489C494.211 746.905 489.45 775.719 499.902 800.696C510.354 825.672 534.363 838.778 557.668 844.007C586.664 850.514 616.634 845.622 645.506 840.618C668.086 836.713 692.426 831.305 710.329 814.789C719.581 806.261 725.914 794.457 728.356 781.576C730.923 768.022 729.846 754.109 727.549 740.622C724.155 720.604 717.656 701.171 708.549 683.353C698.821 664.3 685.679 646.684 668.645 634.813C650.411 622.089 628.762 618.341 607.527 622.224C585.567 626.241 565.574 638.718 548.975 654.449C533.224 669.372 519.937 687.773 510.085 707.768C507.933 712.122 505.966 716.588 504.186 721.143C503.09 723.926 503.421 727.157 506.049 728.818C508.222 730.187 512.031 729.603 513.128 726.798C520.475 707.97 531.072 690.579 543.842 675.566C557.419 659.61 573.915 645.697 592.853 638.112C611.439 630.662 632.156 629.36 650.763 637.304C667.362 644.395 681.084 658.713 691.246 674.444C701.409 690.175 708.922 707.746 713.827 726.215C719.374 747.062 723.782 772.824 713.682 792.864C703.582 812.904 680.629 821.431 660.801 826.166C648.59 829.083 636.172 831.036 623.795 832.853C609.886 834.896 595.833 836.287 581.78 835.793C559.22 834.985 534.383 828.545 518.24 810.256C502.096 791.966 502.055 765.531 508.098 742.529C509.609 736.739 511.493 731.039 513.666 725.497C514.742 722.691 512.507 719.325 510.044 718.585C507.063 717.687 504.766 719.707 503.669 722.512L503.69 722.489Z" fill="#426E47"/>
<path d="M359.695 873.954C379.979 919.052 424.12 946.668 466.341 940.047C548.462 927.182 580.285 811.463 537.84 732.854C499.368 661.622 417.804 660.315 372.772 724.898C344.364 765.61 338.74 827.347 359.695 873.954Z" fill="#426E47"/>
<path d="M354.874 877.613C380.225 934.007 436.103 959.619 483.747 943.067C503.34 936.272 521.505 922.391 535.095 902.703C547.838 884.234 556.63 861.235 560.2 836.843C567.966 783.76 551.564 728.034 517.734 696.324C482.497 663.306 433.425 663.074 396.292 690.98C375.182 706.836 358.4 731.199 349.184 760.616C339.968 790.032 338.807 824.966 347.019 855.398C349.095 863.094 351.728 870.586 354.874 877.642C358.467 885.715 368.108 878.426 364.515 870.324C353.089 844.654 349.898 813.815 354.986 784.95C360.007 756.434 372.615 731.315 390.423 713.515C421.442 682.443 465.448 675.764 500.127 699.315C517.667 711.221 531.636 730.038 540.63 752.949C548.552 773.16 551.988 795.753 550.873 818.548C549.801 840.124 544.2 861.7 534.627 880.169C525.053 898.637 510.548 914.231 493.99 923.32C453.175 945.767 402.585 930.609 373.441 886.615C370.094 881.563 367.126 876.103 364.537 870.324C360.922 862.252 351.259 869.569 354.897 877.642L354.874 877.613Z" fill="#426E47"/>
<path d="M520.011 944.573C545.071 985.22 599.829 1005.86 646.791 991.895C721.25 969.731 749.042 874.444 705.087 815.172C661.217 756.042 566.105 764.286 524.735 824.08C500.353 859.311 497.706 908.368 520.011 944.573Z" fill="#426E47"/>
<path d="M515.436 947.566C543.715 993.416 601.29 1011.57 648.189 997.621C688.924 985.505 722.16 948.302 729.659 901.217C733.176 879.053 730.973 856.389 722.796 835.792C714.619 815.196 698.986 796.428 680.621 785.12C642.491 761.649 593.177 764.309 555.472 787.472C535.327 799.849 518.168 818.854 508.636 842.492C497.812 869.241 496.138 900.647 506.179 928.062C508.678 934.928 511.729 941.437 515.457 947.542C517.067 950.179 520.117 951.367 522.702 949.68C525.032 948.136 526.218 944.216 524.608 941.556C510.818 918.94 506.751 890.669 512.915 864.205C518.465 840.377 531.895 819.614 549.667 805.55C581.971 779.989 626.053 773.408 662.996 788.992C680.769 796.499 696.762 810.207 707.099 828.166C717.437 846.126 721.483 864.846 720.72 885.063C719.957 905.28 713.984 924.142 703.858 940.795C693.733 957.449 677.697 972.225 660.052 980.611C618.851 1000.16 565.597 989.828 533.865 953.933C530.476 950.108 527.341 946.022 524.608 941.579C522.977 938.942 519.969 937.731 517.363 939.441C515.033 940.962 513.826 944.905 515.457 947.566H515.436Z" fill="#426E47"/>
<path d="M792.787 575.01C816.92 583.021 844.778 584.57 863.943 566.236C878.638 552.165 885.386 528.625 885.882 505.645C886.379 482.688 881.37 459.911 876.175 437.582C869.966 410.945 861.563 381.57 841.301 368.375C823.977 357.132 803.094 361.261 784.57 367.612C750.461 379.281 701.058 412.897 700.602 463.075C700.085 520.232 752.821 561.725 792.808 574.988L792.787 575.01Z" fill="#426E47"/>
<path d="M791.421 580.418C812.139 587.285 835.899 589.731 855.851 578.892C875.803 568.053 886.958 543.435 889.98 519.648C893.644 490.924 887.31 462.155 880.791 434.463C875.658 412.695 869.325 388.975 854.402 372.526C846.434 363.752 836.189 358.119 824.95 356.414C812.863 354.596 800.631 356.773 788.979 360.296C771.738 365.525 755.18 373.828 740.444 384.891C725.708 395.954 710.889 411.259 702.755 429.773C694.165 449.319 693.358 471.468 699.547 491.979C711.53 531.766 745.391 560.715 780.1 575.975C783.825 577.613 787.592 579.072 791.421 580.351C797.796 582.483 800.528 571.666 794.174 569.534C778.32 564.238 763.376 555.711 749.861 544.984C736.346 534.257 723.369 519.76 715.132 503.087C706.894 486.413 703.293 466.688 707.494 448.331C711.696 429.975 722.251 415.5 734.918 403.584C747.585 391.668 762.28 382.624 777.119 376.341C794.774 368.891 817.561 361.642 835.63 371.337C852.995 380.627 861.129 401.699 866.551 420.639C869.863 432.196 872.512 444.023 875.016 455.826C877.872 469.358 880.211 483.07 880.687 496.961C881.453 518.795 877.521 543.458 862.826 559.615C848.131 575.773 827.206 577.119 808.248 573.282C803.508 572.317 798.83 571.038 794.215 569.512C787.84 567.402 785.108 578.219 791.462 580.328L791.421 580.418Z" fill="#426E47"/>
<path d="M932.562 613.952C961.346 588.889 974.865 541.099 964.788 498.591C945.179 415.89 860.436 394.519 811.184 445.472C766.535 491.646 776.212 575.131 827.03 614.957C859.08 640.073 902.817 639.882 932.562 613.974L932.562 613.952Z" fill="#426E47"/>
<path d="M935.374 618.694C971.835 586.959 982.264 528.239 965.225 481.865C958.244 462.864 946.897 445.624 931.66 433.384C916.424 421.144 900.271 414.71 882.368 412.88C845.024 409.098 808.295 430.58 790.135 465.882C770.083 504.803 774.872 555.261 798.478 591.39C811.525 611.372 829.933 626.95 851.511 634.411C874.369 642.317 899.601 640.274 920.947 628.7C926.081 625.921 930.882 622.549 935.373 618.671C937.558 616.791 938.558 613.676 936.941 610.931C935.546 608.581 931.976 607.303 929.79 609.183C913.007 623.637 891.244 630.263 869.859 627.308C848.516 624.352 829.478 612.886 814.926 595.791C789.791 566.256 780.747 521.508 793.689 484.071C799.955 465.955 811.632 450.125 826.219 439.461C839.457 429.792 854.681 424.382 870.437 423.689C885.883 423.008 901.275 426.866 915.028 434.986C929.544 443.571 941.392 456.569 949.68 472.376C970.124 511.366 966.87 564.378 939.719 598.563C936.697 602.384 933.397 606.014 929.77 609.184C927.605 611.064 926.584 614.157 928.202 616.925C929.576 619.275 933.167 620.575 935.352 618.672L935.374 618.694Z" fill="#426E47"/>
<path d="M1002.08 544.563C1034.68 515.637 1047.64 458.457 1031.64 412.207C1006.28 338.87 922.399 319.145 875.499 368.829C828.703 418.378 843.957 513.841 898.638 550.42C930.864 571.963 973.044 570.325 1002.08 544.585V544.563Z" fill="#426E47"/>
<path d="M1005.75 548.535C1023.46 532.804 1035.03 509.511 1040.25 485.589C1045.77 460.298 1044.78 432.875 1035.88 408.617C1028.24 387.724 1015.54 369.682 998.646 356.599C982.999 344.481 964.207 337.389 945.062 335.998C925.917 334.607 906.834 339.274 890.401 349.552C873.14 360.369 859.355 377.267 851.47 397.105C835.202 437.992 841.763 488.169 865.606 524.052C878.541 543.486 896.32 558.499 917.473 565.882C941.295 574.208 967.953 572.165 990.243 559.688C995.79 556.592 1000.9 552.777 1005.75 548.513C1007.92 546.605 1007.57 542.566 1005.75 540.569C1003.59 538.235 1000.61 538.661 998.419 540.569C980.971 555.896 957.604 562.157 935.479 558.88C914.451 555.761 895.472 544.316 881.336 527.441C856.52 497.841 846.751 453.207 856.54 414.923C861.446 395.736 871.525 378.546 886.137 366.091C899.321 354.871 916.251 348.251 932.747 347.151C968.263 344.772 1002.68 365.081 1020.34 399.079C1041.08 439.024 1036.83 494.43 1008.99 529.348C1005.77 533.41 1002.23 537.18 998.398 540.569C996.225 542.499 996.556 546.516 998.398 548.513C1000.53 550.824 1003.55 550.443 1005.72 548.513L1005.75 548.535Z" fill="#426E47"/>
<path d="M1166.74 537.892C1198.18 539.912 1227.24 556.9 1249.61 580.328C1274.41 606.292 1290.59 640.066 1301.25 675.275C1307.65 696.347 1312.2 718.003 1315.88 739.815C1316.38 742.8 1319.73 744.483 1322.26 743.742C1325.16 742.889 1326.38 739.837 1325.88 736.83C1319.11 696.841 1309.26 656.851 1290.94 621.103C1274.51 588.99 1250.67 560.782 1220.55 543.435C1203.87 533.831 1185.62 527.884 1166.74 526.672C1160.1 526.246 1160.12 537.466 1166.74 537.892Z" fill="#314731"/>
<path d="M1287.22 799.105C1298.93 801.708 1312.26 801.237 1320.91 792.149C1327.54 785.192 1330.12 774.263 1329.73 763.896C1329.34 753.528 1326.34 743.452 1323.25 733.601C1319.57 721.842 1314.77 708.938 1304.75 703.844C1296.18 699.49 1286.35 702.251 1277.68 705.886C1261.74 712.573 1239.08 729.83 1240.24 752.496C1241.54 778.303 1267.8 794.797 1287.22 799.105Z" fill="#426E47"/>
<path d="M1285.83 804.512C1296.26 806.824 1307.54 807.026 1317.27 801.752C1327.56 796.187 1333.04 784.63 1334.49 772.669C1336.12 759.137 1332.5 745.785 1328.55 733.083C1325.32 722.738 1321.64 711.495 1313.98 703.955C1304.58 694.687 1292.1 694.732 1280.57 698.816C1271.65 701.98 1263.21 706.693 1255.76 712.887C1248.31 719.08 1241.37 727.002 1237.65 736.764C1233.92 746.525 1234.42 757.566 1238.29 767.35C1246.24 787.39 1266.85 800.226 1285.83 804.535C1288.56 805.163 1291.42 803.66 1292.21 800.608C1292.91 797.825 1291.34 794.324 1288.58 793.696C1274.7 790.554 1259.79 782.655 1251.39 769.774C1247.15 763.266 1244.48 755.345 1245.55 747.311C1246.63 739.277 1251.08 732.634 1256.21 727.181C1261.74 721.302 1268.36 716.657 1275.34 713.066C1282.31 709.476 1292.87 705.1 1301.27 708.353C1308.83 711.293 1313.03 720.157 1315.8 727.742C1319.51 737.908 1323.11 748.859 1324.27 759.765C1325.42 770.672 1323.89 782.924 1315.63 789.724C1308.1 795.918 1297.42 795.648 1288.6 793.696C1285.87 793.09 1283.02 794.549 1282.23 797.623C1281.53 800.406 1283.1 803.907 1285.85 804.535L1285.83 804.512Z" fill="#426E47"/>
<path d="M1360.15 845.441C1373.67 833.39 1379.71 811.443 1374.52 792.436C1364.44 755.498 1323.79 747.936 1300.71 772.217C1279.81 794.209 1285.15 831.752 1309.78 848.516C1325.3 859.085 1346.18 857.918 1360.15 845.441Z" fill="#426E47"/>
<path d="M1363.82 849.414C1381.56 833.593 1385.92 804.914 1376.65 782.787C1369.03 764.587 1351.98 753.075 1333.7 752.604C1315.43 752.133 1296.35 763.488 1287.86 781.732C1278.67 801.48 1282.13 825.335 1295.1 842.076C1312.22 864.157 1343.14 867.479 1363.84 849.414C1366.01 847.506 1365.66 843.467 1363.84 841.47C1361.69 839.136 1358.71 839.562 1356.51 841.47C1341.75 854.351 1319.59 852.196 1306.11 838.373C1294.25 826.21 1289.87 807.606 1295.29 791.225C1297.81 783.595 1303.11 776.459 1309.05 771.97C1312.14 769.637 1315.49 767.707 1318.64 766.495C1322.07 765.171 1325.88 764.251 1328.86 763.981C1343.02 762.702 1356.97 769.165 1364.73 782.383C1375.66 800.942 1372.45 827.287 1356.53 841.47C1354.38 843.4 1354.69 847.417 1356.53 849.414C1358.66 851.725 1361.69 851.344 1363.86 849.414H1363.82Z" fill="#426E47"/>
<path d="M1381.37 780.772C1396.13 766.343 1400.76 739.997 1391.88 719.8C1377.81 687.777 1337.28 682.414 1316.28 706.807C1295.31 731.133 1305.16 773.569 1332.21 787.751C1348.15 796.122 1368.23 793.608 1381.37 780.75V780.772Z" fill="#426E47"/>
<path d="M1385.03 784.744C1402.17 768.003 1406.1 738.381 1396.06 716.321C1387.27 697.022 1367.92 685.443 1348.27 686.004C1328.63 686.565 1310.01 699.536 1302.84 720.047C1295.68 740.558 1301.4 764.681 1314.75 780.502C1332.9 802.023 1364.81 804.088 1385.01 784.744C1390.02 779.941 1382.67 772.042 1377.68 776.799C1363.2 790.69 1339.97 790.084 1325.69 776.44C1313.63 764.906 1307.63 746.168 1311.02 729.539C1314.41 712.91 1327.72 700.097 1343.64 697.583C1350.74 696.461 1358.56 697.516 1365.78 700.523C1372.55 703.351 1379.28 708.849 1383.6 715.558C1395.48 733.96 1393.27 761.585 1377.71 776.799C1372.74 781.647 1380.09 789.568 1385.03 784.744Z" fill="#426E47"/>
<path d="M586.851 404.752C554.087 379.416 518.198 358.434 479.826 344.969C443.441 332.2 404.675 326.568 366.551 331.078C329.504 335.454 293.304 348.694 262.217 371.18C231.13 393.666 206.915 423.714 190.171 459.126C173.427 494.537 164.382 534.504 165.769 574.359C165.935 579.319 166.287 584.256 166.783 589.17C167.094 592.177 168.936 594.781 171.958 594.781C174.524 594.781 177.442 592.2 177.132 589.17C173.303 550.954 179.429 511.884 193.814 476.787C208.198 441.689 229.392 411.596 257.064 388.863C284.736 366.131 320.211 350.041 355.996 343.847C391.781 337.653 429.45 341.109 464.717 351.769C502.179 363.079 537.343 382.086 569.61 405.447C573.667 408.387 577.682 411.394 581.656 414.468C583.932 416.219 587.409 414.895 588.734 412.449C590.245 409.621 589.169 406.547 586.871 404.774L586.851 404.752Z" fill="#314731"/>
<path d="M175.228 583.647C154.593 600.343 135.821 624.198 135.655 652.069C135.531 673.478 146.707 693.405 161.464 707.453C176.221 721.501 194.373 730.545 212.338 739.14C233.78 749.395 258.43 759.359 280.017 749.148C298.437 740.419 309.034 719.392 316.671 699.195C330.745 661.966 340.142 598.144 307.482 568.006C270.289 533.694 209.44 555.978 175.249 583.647H175.228Z" fill="#426E47"/>
<path d="M172.62 578.801C155.566 592.602 139.774 610.42 133.275 632.906C126.383 656.693 133.42 681.019 147.535 699.869C162.479 719.864 184.335 731.735 205.59 742.013C227.115 752.426 251.931 764.297 275.878 756.734C297.051 750.069 309.986 729.401 318.534 708.643C325.695 691.274 330.746 672.985 333.167 654.112C335.671 634.611 335.816 613.988 329.876 595.16C323.936 576.332 311.477 560.691 294.402 552.5C258.471 535.288 215.153 549.56 183.383 570.879C179.698 573.348 176.097 575.996 172.62 578.801C170.385 580.596 169.246 583.648 170.757 586.476C172.041 588.877 175.58 590.313 177.836 588.495C191.848 577.208 207.639 568.411 224.28 562.688C240.817 557.011 258.906 553.981 276.085 557.819C292.208 561.432 306.944 571.283 315.161 586.835C323.377 602.386 324.95 619.778 324.288 636.923C323.626 654.067 320.149 672.065 314.788 688.716C309.096 706.467 301.149 725.833 287.302 737.861C269.731 753.166 246.757 747.893 227.405 739.926C216.974 735.64 206.75 730.591 196.753 725.25C186.756 719.909 176.863 713.962 168.212 706.332C153.02 692.98 140.54 673.591 140.809 651.621C141.078 629.652 153.558 611.677 167.57 597.718C170.84 594.465 174.255 591.345 177.815 588.473C180.05 586.655 181.189 583.626 179.678 580.798C178.395 578.419 174.855 576.961 172.599 578.778L172.62 578.801Z" fill="#426E47"/>
<path d="M5.51208 644.777C2.30404 685.373 23.5392 727 57.0891 744.886C122.306 779.691 191.91 719.73 192.324 645.226C192.696 577.679 133.544 533.785 74.7437 552.837C37.6546 564.865 8.84431 602.813 5.53278 644.777H5.51208Z" fill="#426E47"/>
<path d="M0.337818 644.777C-3.42904 692.351 24.6775 739.208 66.0716 755.028C84.6162 762.12 105.148 762.456 123.899 755.993C142.113 749.71 158.484 737.547 170.881 721.816C197.105 688.469 205.963 639.548 188.039 599.356C171.109 561.342 132.137 539.282 93.7229 543.187C72.3842 545.364 52.4944 554.587 36.2472 569.757C20.2277 584.702 8.26479 605.169 3.00774 627.385C1.66243 633.085 0.813851 638.92 0.317121 644.777C0.0687569 647.806 2.88356 650.387 5.49138 650.387C8.49245 650.387 10.4173 647.806 10.6656 644.777C14.1427 602.924 44.1949 566.234 81.7186 556.607C115.496 547.944 152.73 561.521 172.599 592.938C193.503 626.016 190.585 670.382 170.84 703.235C151.095 736.088 117.318 754.916 82.6086 748.184C63.2361 744.414 45.7885 733.553 32.8736 717.485C19.9586 701.417 11.9903 680.996 10.5829 659.992C10.2517 654.92 10.2724 649.826 10.6656 644.777C10.914 641.747 8.11991 639.166 5.49138 639.166C2.49031 639.166 0.565486 641.747 0.317121 644.777H0.337818Z" fill="#426E47"/>
<path d="M63.0913 773.341C61.3113 819.434 90.6183 864.832 131.185 878.028C195.49 898.942 261.886 836.086 259.154 764.971C256.422 694.035 184.024 651.016 125.162 677.945C90.4735 693.811 64.6849 732.274 63.0913 773.319V773.341Z" fill="#426E47"/>
<path d="M57.917 773.341C56.0543 821.477 86.5824 868.962 129.094 883.212C171.606 897.462 214.863 877.175 240.755 841.113C253.939 822.734 262.383 800.764 264.101 777.47C265.715 755.77 260.872 733.643 250.048 715.264C229.433 680.257 189.923 660.419 151.964 664.84C107.549 670.001 69.4867 707.769 60.0695 755.097C58.8691 761.089 58.1654 767.215 57.8963 773.341C57.5859 780.567 67.9344 780.545 68.2448 773.341C70.1283 729.2 101.008 688.986 140.436 678.327C174.11 669.238 211.406 682.164 234.194 710.821C245.37 724.869 252.469 742.979 253.773 761.605C255.243 782.475 250.379 803.3 240.672 821.342C221.631 856.731 184.148 881.214 145.755 875.761C107.362 870.308 73.7089 831.845 68.8037 789.027C68.2034 783.821 68.0172 778.57 68.2241 773.341C68.4932 766.115 58.1447 766.138 57.8756 773.341H57.917Z" fill="#426E47"/>
</svg>
