<svg width="128" height="128" viewBox="0 0 128 128" fill="none" xmlns="http://www.w3.org/2000/svg">
<path d="M18.815 57.2651C11.8824 60.2169 4.97865 66.0784 3.96253 74.3157C3.03501 81.9193 7.72376 89.2552 13.8462 92.4193C19.9686 95.5833 27.1501 95.2267 33.7968 93.547C41.3875 91.6246 72.341 78.547 63.3121 65.1643C54.4966 52.0935 31.1275 52.018 18.815 57.2651Z" fill="#B79DA9"/>
<path d="M17.9992 55.2111C12.0402 57.7548 6.22956 62.2564 3.35415 68.8706C0.478744 75.4847 2.08995 83.708 6.45457 89.0839C15.0019 99.6189 29.0914 98.0981 40.2105 93.7115C44.5739 91.9883 48.8475 89.9348 52.9195 87.4482C56.9915 84.9616 60.9915 82.1006 64.0042 78.1164C66.5053 74.8003 67.7914 70.476 66.2954 66.3646C64.4363 61.2531 59.5169 57.6885 55.2143 55.5776C49.3112 52.6648 42.6001 51.6607 36.1495 51.7381C29.6989 51.8156 23.8139 52.7602 17.9858 55.2098C15.5311 56.2355 17.1879 60.3629 19.6293 59.3359C28.5895 55.5761 39.4275 55.2006 48.5356 57.8661C52.9712 59.1641 57.4868 61.3115 60.6327 65.1587C62.7508 67.7408 63.6267 70.2912 62.1127 73.3383C60.4101 76.795 57.1573 79.3478 54.2525 81.3844C50.6214 83.9302 46.7113 86.0045 42.7457 87.8132C33.9511 91.819 23.5245 94.9281 14.5808 90.2901C9.11715 87.4516 4.67316 80.5225 6.13157 73.4461C7.58997 66.3696 13.9665 61.7561 19.6293 59.3359C22.0855 58.2951 20.4287 54.1676 17.9858 55.2098L17.9992 55.2111Z" fill="#B79DA9"/>
<path d="M74.7272 21.4734C69.4867 13.547 61.3369 7.70272 52.4731 7.54013C43.6228 7.37888 34.4291 13.8236 31.9372 23.4593C29.8173 31.6327 32.7432 40.6752 38.1851 46.3879C46.9795 55.6316 64.0845 58.4652 75.3137 52.8044C87.5254 46.6446 80.405 30.0552 74.7406 21.4747L74.7272 21.4734Z" fill="#B79DA9"/>
<path d="M76.3042 20.008C69.6476 9.93648 57.9468 2.74449 46.4839 6.0718C35.7445 9.19569 27.6243 20.1994 29.5017 32.9319C31.379 45.6645 40.9732 53.6414 51.4816 56.5227C56.7023 57.9599 62.1288 58.3926 67.5016 57.5654C72.2698 56.831 77.6743 55.1195 81.0204 50.9083C88.2076 41.8467 81.4225 27.7998 76.3057 19.9928C74.7732 17.6525 71.6177 20.5975 73.1517 22.9226C75.4035 26.3596 77.316 30.084 78.645 34.1024C79.826 37.6929 80.6997 42.079 79.2432 45.7897C77.6426 49.8685 73.4072 51.528 69.8531 52.4444C65.3818 53.6061 60.7751 53.6527 56.297 52.9319C47.463 51.4871 38.4743 46.615 34.7926 36.9925C32.9129 32.0932 32.6751 26.4545 34.7408 21.4887C36.6461 16.92 40.3774 13.4815 44.4486 11.5609C55.2168 6.46617 66.7428 13.2277 73.1532 22.9075C74.6991 25.2491 77.8411 22.3028 76.3072 19.9777L76.3042 20.008Z" fill="#B79DA9"/>
<path d="M98.0316 6.59302C106.459 2.88723 117.189 5.98947 121.537 14.745C124.571 20.8607 124.217 28.5519 122.444 35.3828C118.142 51.9529 105.579 65.6359 90.7365 69.8969C86.8237 71.0223 80.3437 58.0156 79.2394 55.0294C77.0411 49.0886 76.0996 41.6358 77.1596 35.1776C78.9279 24.4907 89.1937 10.4874 98.0316 6.59302Z" fill="#B79DA9"/>
<path d="M98.8593 8.66468C108.163 4.57181 119.623 9.9192 121.466 21.3325C123.309 32.7459 117.489 45.9979 110.33 54.3433C106.652 58.6286 102.328 62.1764 97.5592 64.7314C95.3608 65.905 92.7442 67.343 90.3154 67.6828C90.3556 67.6868 90.1277 67.6641 90.2454 67.7064C89.9683 67.6329 89.8028 67.5247 89.5867 67.3808C88.8861 66.9286 88.2746 66.2558 87.7287 65.6048C81.7891 58.4657 78.1351 48.4175 78.8289 38.4805C79.2781 31.9003 82.1946 25.9787 85.7688 20.8111C89.343 15.6434 93.6046 11.0642 98.8578 8.67984C101.293 7.5757 99.6364 3.44826 97.2144 4.55373C91.79 7.02822 87.2129 11.7901 83.4896 16.8206C79.7662 21.8511 76.5965 27.7322 75.3294 34.0932C72.9208 46.0781 77.0723 58.6697 83.8617 67.6528C85.1342 69.3247 86.6511 71.1279 88.5377 71.9123C90.7506 72.8209 93.2304 71.5376 95.3443 70.6769C100.994 68.3931 106.263 64.7251 110.725 60.1811C119.724 50.9938 126.572 37.0637 125.751 23.2122C125.288 15.4245 121.539 8.87046 115.422 5.37036C109.894 2.21952 103.054 1.98287 97.2144 4.55373C94.7686 5.62623 96.4254 9.75366 98.8578 8.67984L98.8593 8.66468Z" fill="#B79DA9"/>
<path d="M43.694 54.6155C40.0915 56.1697 36.4894 59.2538 35.9481 63.5757C35.4659 67.5669 37.8939 71.4191 41.0893 73.0834C44.2846 74.7476 48.0124 74.5523 51.4817 73.6734C55.4378 72.6593 71.5508 65.7707 66.8595 58.7405C62.2741 51.8738 50.1085 51.8417 43.694 54.6155Z" fill="#A57E89"/>
<path d="M72.8233 35.7863C70.1 31.6293 65.85 28.5596 61.2431 28.4686C56.6362 28.3775 51.8399 31.7713 50.5355 36.8435C49.4281 41.1396 50.9562 45.8969 53.7793 48.8857C58.3577 53.7322 67.2559 55.214 73.1071 52.2464C79.4585 49.0074 75.7704 40.2869 72.8233 35.7863Z" fill="#A57E89"/>
<path d="M51.1994 58.4526C49.26 59.4684 47.2949 61.4455 46.9765 64.1678C46.6772 66.6931 47.9462 69.099 49.635 70.1084C51.3237 71.1179 53.3283 70.9654 55.1863 70.3699C57.3094 69.6937 65.9887 65.2021 63.5571 60.8293C61.1255 56.4565 54.6631 56.6552 51.2128 58.454L51.1994 58.4526Z" fill="#8B7164"/>
<path d="M50.3703 56.3966C48.4025 57.4248 46.6962 59.1064 45.698 61.302C44.6151 63.6729 44.6649 66.646 45.825 68.9187C47.0776 71.3535 49.1617 72.8919 51.6999 73.0985C53.5529 73.2522 55.4126 72.7793 57.1409 71.9873C59.8873 70.7458 62.8267 68.9115 64.6971 66.2365C65.6561 64.8631 66.2526 63.0406 65.893 61.3066C65.4661 59.2904 64.0699 57.6369 62.5138 56.6559C58.9424 54.4035 54.1302 54.4756 50.3717 56.3814C47.9797 57.597 49.6231 61.7231 52.0151 60.5075C53.0541 59.9836 54.0547 59.7159 55.5171 59.5707C55.6541 59.5537 55.7897 59.5519 55.9267 59.5349C55.5186 59.5555 56.1962 59.5464 56.2111 59.5326C56.5224 59.533 56.8322 59.5485 57.1406 59.5792C57.4891 59.6138 57.8243 59.6472 58.1565 59.7108C58.3308 59.7282 58.4887 59.7745 58.6616 59.807C58.2921 59.709 58.9104 59.8929 58.9238 59.8943C59.2382 60.002 59.5511 60.125 59.8626 60.263C60.0176 60.3396 60.1592 60.4149 60.3142 60.4915C60.6346 60.6764 59.9623 60.2117 60.4543 60.582C60.7182 60.7918 60.9701 60.9852 61.2325 61.2102C61.5441 61.486 61.3429 61.3283 61.2832 61.2458C61.4652 61.4628 61.6069 61.6758 61.774 61.9066C61.8218 61.9726 61.9801 62.2943 61.7994 61.9245C61.8546 62.0524 61.8965 62.1789 61.9532 62.2917C62.0876 62.5804 61.8424 61.7604 61.9577 62.2462C61.9756 62.3398 61.9788 62.4472 61.9967 62.5408C61.8649 61.9463 61.9474 62.3523 61.9714 62.523C61.9774 62.6001 61.9508 62.7351 61.9286 62.8247C62.0201 62.1606 61.9835 62.6772 61.9018 62.822C61.8378 62.9228 61.615 63.4055 61.8973 62.8675C61.7651 63.1144 61.6209 63.3449 61.4633 63.574C61.3994 63.6747 61.3235 63.759 61.2611 63.8446C60.9444 64.318 61.5601 63.553 61.1689 63.9578C60.7167 64.433 60.254 64.8766 59.7541 65.2858C59.5338 65.4628 59.3136 65.6398 59.0815 65.8003C58.5845 66.1793 59.4268 65.5899 58.9074 65.9207C58.8062 65.9871 58.705 66.0536 58.6023 66.1352C58.0531 66.4936 57.4935 66.8205 56.922 67.1308C56.4784 67.3774 56.0229 67.6075 55.5704 67.8073C55.3858 67.896 55.1893 67.9683 55.0047 68.057C54.9347 68.0806 54.8648 68.1043 54.8067 68.1444C54.4659 68.3094 55.2802 68.0079 54.9616 68.0833C53.3937 68.4781 51.6576 68.9327 50.3158 67.8354C49.2751 66.9822 48.71 65.2736 49.1044 63.8593C49.5404 62.2962 50.7455 61.1768 52.0434 60.495C54.425 59.2479 52.7815 55.1218 50.4 56.3689L50.3703 56.3966Z" fill="#8B7164"/>
<path d="M70.2736 40.7194C68.98 38.8465 66.8496 37.227 64.4342 37.5682C62.196 37.8963 60.4037 39.9059 59.9014 42.0132C59.399 44.1205 59.9617 46.2725 60.874 48.1687C61.9103 50.3219 67.6772 58.6831 70.9179 54.8592C74.1587 51.0354 72.5922 44.0252 70.2885 40.7055L70.2736 40.7194Z" fill="#8B7164"/>
<path d="M71.8505 39.2543C70.4495 37.2331 68.4787 35.7825 66.2336 35.345C63.9885 34.9074 61.553 35.8739 59.9392 37.7176C58.1738 39.7299 57.3981 42.422 57.7798 45.1833C58.0608 47.1696 58.8435 49.0069 59.8359 50.6356C61.4015 53.1934 63.4316 55.7056 65.8999 57.1904C67.3443 58.0685 68.9861 58.446 70.5938 57.7797C72.2879 57.0608 73.5053 55.1165 74.1048 53.2636C75.6065 48.6701 74.3961 43.0112 71.8491 39.2695C71.1851 38.3007 69.84 38.2129 69.0069 38.9868C68.1291 39.8021 68.0311 41.2306 68.6951 42.1993C68.8025 42.3477 68.8965 42.4947 68.989 42.6569C69.0248 42.7064 69.31 43.2549 69.0935 42.8356C69.2533 43.1422 69.3996 43.4475 69.5325 43.7514C69.6655 44.0553 69.8074 44.406 69.9225 44.7541C69.9972 44.9604 70.072 45.1667 70.1318 45.3869C70.1318 45.3869 70.3233 46.0638 70.2245 45.6868C70.4296 46.5028 70.578 47.3437 70.658 48.1932C70.6701 48.3474 70.6822 48.5016 70.6943 48.6558C70.6929 48.6709 70.6998 49.4366 70.7051 48.9628C70.7012 49.4214 70.6839 49.8787 70.6264 50.332C70.6043 50.5593 70.5703 50.7701 70.5349 50.9961C70.4639 51.448 70.5067 51.1463 70.5304 51.0415C70.4208 51.4743 70.2738 51.8728 70.1268 52.2713C70.1075 52.3305 69.9411 52.6506 70.121 52.3319C70.0214 52.5209 69.9218 52.7099 69.7969 52.881C69.7018 53.0246 69.5932 53.1668 69.4981 53.3103C69.3895 53.4525 69.4059 53.4235 69.5591 53.2399C69.4981 53.3103 69.4237 53.3794 69.3493 53.4485C69.7572 53.2902 68.9339 53.5449 69.3493 53.4485C69.2927 53.4735 69.1781 53.5386 69.1216 53.5636C68.8016 53.7918 69.5326 53.5126 69.1647 53.5372C69.0843 53.5292 68.9592 53.5627 68.8624 53.5837C68.6391 53.6533 69.3541 53.6785 68.986 53.5654C68.8803 53.5395 68.7179 53.5387 68.6106 53.528C68.2889 53.496 68.7045 53.5374 68.7686 53.5743C68.5987 53.5115 68.4274 53.4639 68.259 53.386C68.1427 53.3285 67.4765 52.9409 67.9609 53.2492C67.7448 53.1053 67.5286 52.9614 67.3274 52.8037C66.7981 52.3991 66.3269 51.9545 65.8453 51.4782C65.4501 51.087 66.0407 51.6965 65.808 51.4439C65.7096 51.3423 65.6126 51.2255 65.5276 51.1253C65.3456 50.9083 65.1636 50.6913 64.9817 50.4743C64.57 49.9744 64.1866 49.4619 63.8061 48.9192C63.545 48.5413 63.2853 48.1483 63.0391 47.7566C62.9346 47.5779 62.8316 47.3841 62.7257 47.2205C62.5705 47.0062 62.9587 47.7486 62.8287 47.4144C62.7764 47.2562 62.6704 47.0926 62.6032 46.9483C62.2448 46.1782 61.9534 45.4149 61.8259 44.6372C61.6983 43.8595 61.7106 42.8968 61.9317 42.2915C62.1886 41.598 62.523 41.0805 63.1152 40.558C63.4856 40.2276 63.4827 40.2579 63.9799 40.0167C64.5634 39.7229 63.8429 40.0337 64.2047 39.932C64.4682 39.8664 64.7318 39.8008 65.0043 39.782C66.376 39.7349 67.77 40.8527 68.6965 42.1841C69.362 43.1377 70.7056 43.2408 71.5387 42.4669C72.3718 41.6929 72.516 40.2079 71.8505 39.2543Z" fill="#8B7164"/>
<path d="M79.821 61.7265C79.7252 58.9477 78.7307 55.6664 76.8286 53.0905C74.9264 50.5145 72.0915 48.9014 70.2799 49.7157C68.7377 50.4038 68.1895 52.7054 68.6125 55.1802C69.3056 59.1964 72.641 64.5771 75.8119 66.9121C79.2749 69.4444 79.92 64.7504 79.8195 61.7416L79.821 61.7265Z" fill="#606060"/>
<path d="M81.8104 61.3129C81.674 57.0001 79.7221 52.7056 76.8947 49.8999C75.5242 48.5396 73.7758 47.4477 71.9287 47.2333C69.867 46.9977 68.0216 48.1605 67.0873 50.2554C65.29 54.2688 67.3453 59.0325 69.2544 62.3742C70.2709 64.1736 71.4956 65.7795 72.8855 67.2182C74.0905 68.4702 75.5636 69.749 77.2692 69.888C81.3119 70.2136 81.9127 64.5819 81.8104 61.3129C81.7806 60.0859 80.4644 59.2818 79.4846 59.4751C78.2964 59.7241 77.7765 60.8963 77.8048 62.1384C77.7801 61.4169 77.7962 62.367 77.7963 62.5048C77.7847 62.7637 77.7731 63.0226 77.7615 63.2816C77.7499 63.5405 77.7115 63.7968 77.6865 64.0544C77.6733 64.1908 77.6452 64.341 77.6185 64.4761C77.5536 65.0051 77.6705 64.3588 77.6141 64.5215C77.5384 64.7435 77.4896 64.9681 77.4139 65.1901C77.4095 65.2355 77.2164 65.6906 77.3738 65.3238C77.5312 64.9569 77.3426 65.3666 77.3099 65.4245C77.2757 65.4976 77.2013 65.5667 77.1672 65.6398C77.4243 65.2217 77.3962 65.3719 77.2326 65.5239C77.0258 65.7023 77.7044 65.2649 77.3367 65.4272C77.5644 65.3122 77.7239 65.3433 77.3962 65.3719C77.4364 65.3759 77.925 65.3633 77.5615 65.3425C77.1727 65.3038 77.7732 65.5318 77.6017 65.3465C77.5391 65.2943 76.8953 64.9549 77.174 65.1509C76.6165 64.7589 76.0783 64.3075 75.5847 63.8147C75.2387 63.4743 75.3491 63.5924 75.0329 63.2244C74.8255 62.9895 74.6331 62.7409 74.4273 62.4909C73.9335 61.8604 73.4561 61.201 73.0233 60.5C72.2368 59.259 71.6337 58.0821 71.0763 56.5732C70.616 55.3187 70.3838 54.2246 70.513 52.7534C70.5189 52.6928 70.6093 52.3193 70.5219 52.6625C70.5663 52.4833 70.6242 52.3055 70.694 52.1441C70.8395 51.7608 70.4995 52.6144 70.7609 52.0131C70.7965 51.9248 71.0211 51.7024 70.7638 51.9828C70.7638 51.9828 71.158 51.5477 70.9721 51.7893C70.8472 51.9605 71.3741 51.6916 70.859 51.8393C70.9557 51.8183 71.0659 51.7987 71.1642 51.7625C71.5677 51.6497 70.8469 51.6851 71.2849 51.7745C71.4323 51.7892 71.5798 51.8039 71.7139 51.8172C72.0341 51.8644 71.2713 51.6355 71.8196 51.843C72.067 51.9441 72.3158 52.0301 72.5617 52.1463C72.988 52.357 72.8091 52.2474 73.2131 52.5477C73.5291 52.778 73.8303 53.0222 74.1166 53.2802C75.2349 54.3094 76.1945 55.8583 76.825 57.451C77.4226 58.9639 77.7356 60.3415 77.7929 62.1219C77.8361 63.3502 79.1254 64.1516 80.1186 63.9597C81.3069 63.7107 81.8401 62.5398 81.7984 61.2964L81.8104 61.3129Z" fill="#606060"/>
<path d="M65.8094 56.1719C64.1536 55.3799 61.9565 55.1461 60.2945 56.5107C58.75 57.78 58.1734 60.0941 58.5822 61.8789C58.991 63.6638 60.2274 65.0107 61.6078 65.9895C63.1909 67.1109 70.5888 70.6619 71.5754 66.3537C72.5621 62.0455 68.7735 57.5683 65.8242 56.1581L65.8094 56.1719Z" fill="#606060"/>
<path d="M66.5454 54.0261C64.915 53.252 62.9397 52.9637 61.1904 53.5547C59.1194 54.2513 57.3641 56.0198 56.7534 58.407C56.1427 60.7943 56.4761 63.0765 57.7014 65.0955C58.6252 66.595 59.9953 67.6799 61.4172 68.5098C63.4428 69.6751 65.8404 70.6327 68.1461 70.7244C69.5224 70.7695 70.9549 70.5142 72.0693 69.4929C73.4811 68.1951 73.8196 66.1021 73.6951 64.1773C73.4097 59.7272 69.994 55.7308 66.5439 54.0413C65.5752 53.5624 64.2624 54.258 63.9093 55.3857C63.5325 56.6181 64.0121 57.8133 65.0449 58.3291C65.1865 58.4044 65.3281 58.4797 65.4696 58.555C65.9197 58.7986 65.2713 58.3669 65.5069 58.5892C65.7425 58.8116 66.0525 58.9648 66.303 59.1733C66.5535 59.3818 66.7786 59.5725 67.0142 59.7949C67.1141 59.8813 67.1991 59.9816 67.299 60.068C67.472 60.2382 67.4839 60.2547 67.3363 60.1023C67.4213 60.2026 67.5197 60.3041 67.6047 60.4044C68.0418 60.9222 68.4342 61.4814 68.7968 62.0683C69.1356 62.6222 68.643 61.7011 68.9237 62.2951C68.979 62.423 69.0491 62.537 69.1044 62.6649C69.2717 63.0335 69.4106 63.4145 69.5348 63.8093C69.3897 63.3512 69.5737 63.9662 69.5812 64.0281C69.6201 64.185 69.6441 64.3557 69.6682 64.5264C69.6922 64.6971 69.7043 64.8513 69.7149 65.0206C69.6711 64.4961 69.7061 65.1116 69.6973 65.2025C69.6841 65.3389 69.6708 65.4752 69.6591 65.5965C69.6429 65.7632 69.4559 66.2953 69.6473 65.7177C69.6265 65.7921 69.5909 65.8804 69.5687 65.97C69.7068 65.6624 69.4309 66.553 69.5687 65.97C69.5316 66.0734 69.2816 66.278 69.5509 66.0141C69.835 65.7364 69.5538 65.9838 69.5092 66.0252C69.2012 66.27 69.9617 65.8255 69.6104 65.9588C69.5538 65.9838 69.4689 66.0212 69.4243 66.0627C69.009 66.2968 69.527 65.9811 69.5211 66.0417C69.5211 66.0417 69.3395 66.1002 69.3127 66.0975C69.2025 66.1171 69.0923 66.1368 68.9821 66.1564C68.6366 66.2291 68.8392 66.234 69.0491 66.1631C68.671 66.2938 68.0243 66.1223 67.6385 66.0534C67.4106 66.0307 67.1871 65.9626 66.974 65.9261C66.6165 65.8446 67.0545 65.9341 67.0932 65.9532C66.9085 65.9043 66.7371 65.8566 66.5539 65.7925C65.6733 65.5213 64.8015 65.1592 63.961 64.7543C63.6123 64.5819 63.2784 64.3957 62.9311 64.2082C62.6733 64.0754 63.4126 64.5467 62.9699 64.2273C62.7418 64.0669 62.5137 63.9065 62.3005 63.7323C62.0247 63.506 61.7489 63.2797 61.5043 63.0105C61.7623 63.281 61.3119 62.7619 61.3119 62.7619C61.2283 62.6465 61.1448 62.5311 61.0612 62.4157C60.73 61.9237 60.6297 61.5619 60.4919 60.8903C60.384 60.3287 60.4253 61.2967 60.4693 60.7044C60.4884 60.5074 60.509 60.2953 60.5281 60.0983C60.5587 59.5046 60.3856 60.4513 60.5621 59.8875C60.6215 59.6945 60.6957 59.4877 60.755 59.2947C60.9435 58.7473 60.5409 59.5488 60.8576 59.0754C60.969 58.9029 61.0805 58.7304 61.2054 58.5592C60.9422 58.9002 61.3825 58.4085 61.3988 58.3795C61.671 58.0853 61.305 58.3702 61.6325 58.2039C61.8051 58.0986 61.9897 58.0099 62.1728 57.9363C61.82 58.0848 62.4349 57.8859 62.5183 57.8636C62.6836 57.8341 62.8354 57.8033 62.9992 57.789C62.5897 57.8248 63.2272 57.8117 63.321 57.821C63.4819 57.837 63.6428 57.853 63.8036 57.869C63.9243 57.881 64.0569 57.9095 64.1761 57.9367C63.9913 57.8877 63.9645 57.885 64.109 57.93C64.4368 58.0391 64.7512 58.1469 65.0746 58.3015C66.0448 58.7652 67.3547 58.0999 67.7092 56.9571C68.0846 55.7398 67.608 54.5143 66.5737 54.0136L66.5454 54.0261Z" fill="#606060"/>
<path d="M106.262 102.393C101.935 103.875 97.2556 104.955 93.0251 103.356C92.9208 103.315 92.8299 103.275 92.7256 103.234C87.5056 101.093 84.2337 95.3362 81.357 89.9706C78.0907 83.8777 74.576 73.2313 80.2619 66.5295C83.7168 62.4515 87.6429 62.4443 92.1772 62.8647C102.278 63.8082 117.969 69.7753 121.249 82.0048C124.141 92.7881 114.157 99.705 106.247 102.407L106.262 102.393Z" fill="#D9C2D1"/>
<path d="M105.939 100.142C101.307 101.701 96.0631 103.016 91.6971 100.164C88.1077 97.8179 85.7121 93.6323 83.6147 89.7211C80.1603 83.3341 75.9027 71.6959 83.4803 66.4215C86.5281 64.3073 90.4683 64.8522 93.7918 65.3358C97.1152 65.8194 100.505 66.738 103.71 68.0207C109.808 70.4632 116.544 74.5603 119.031 81.7079C122.389 91.3136 112.874 97.7263 105.939 100.142C103.473 100.999 104.078 105.511 106.586 104.628C114.447 101.876 124.161 95.6514 123.774 84.9949C123.415 75.1673 115.3 68.5462 108.05 65.0099C104.263 63.1644 100.217 61.8899 96.1369 61.1169C92.0564 60.3438 87.3253 59.7202 83.2807 61.5057C78.6705 63.541 75.6206 68.7456 75.2802 74.2043C74.9399 79.6631 76.5308 84.7478 78.6886 89.2923C81.1286 94.4156 84.1544 99.9185 88.457 103.284C93.9046 107.544 100.457 106.696 106.585 104.644C109.062 103.804 108.457 99.3065 105.937 100.158L105.939 100.142Z" fill="#D9C2D1"/>
<path d="M46.6792 118.129C51.3847 124.594 60.6556 125.165 67.1336 120.76C73.6116 116.355 77.474 108.08 78.8251 99.7383C80.3625 90.3136 79.0382 80.39 75.142 72.0007C73.8757 69.289 73.3626 68.7178 70.6266 68.7364C68.7306 68.7467 65.6047 67.9002 64.117 69.2822C57.6915 75.2373 48.2965 82.7788 44.9265 91.7C42.0998 99.2064 42.093 111.828 46.6806 118.114L46.6792 118.129Z" fill="#D9C2D1"/>
<path d="M45.1007 119.609C51.1564 127.923 62.7495 127.439 70.107 121.225C78.5998 114.052 81.8028 101.274 81.4151 89.9292C81.2062 83.5743 79.7627 77.2496 77.2506 71.6142C76.3948 69.6931 75.4464 67.6098 73.5286 66.8683C71.742 66.1703 69.3352 66.2828 67.4451 66.2325C64.84 66.157 63.3398 67.1094 61.3641 68.9171C59.3883 70.7248 57.3753 72.4983 55.4354 74.3555C51.4395 78.1501 47.4053 82.3388 44.6785 87.4225C41.9516 92.5061 40.9619 97.9615 40.9851 103.579C41.0084 109.196 41.9629 115.12 45.1156 119.595C46.721 121.882 49.8764 118.937 48.2695 116.666C43.9531 110.514 44.1443 100.038 46.6617 92.9288C49.8277 84.0179 57.8794 77.9033 64.2664 72.0668C64.9344 71.4601 65.3656 70.9216 66.2294 70.8086C67.0931 70.6956 67.9586 70.8429 68.8032 70.927C70.0902 71.055 71.8992 70.5464 72.7215 71.8369C73.8153 73.5369 74.5196 75.7642 75.1698 77.7108C76.0504 80.3534 76.6629 83.1071 77.0268 85.9125C78.3091 95.5718 76.6855 106.441 70.9102 114.205C67.9362 118.209 63.8198 120.875 59.2165 121.304C55.1866 121.683 50.8715 120.26 48.2681 116.681C46.6314 114.437 43.4774 117.367 45.1141 119.611L45.1007 119.609Z" fill="#D9C2D1"/>
</svg>
